<svg xmlns="http://www.w3.org/2000/svg" xmlns:xlink="http://www.w3.org/1999/xlink" viewBox="0 0 1718.25 382"><defs><style>.cls-1{fill:#00dc4d;}.cls-2{fill:#f7cc04;}.cls-3{fill:#b50b0a;}.cls-4{fill:#ea8c00;}.cls-5{fill:#75944b;}.cls-6{fill:#5c2688;}.cls-7{fill:none;stroke:#00dc4d;stroke-miterlimit:10;}</style><image id="image" width="2569" height="4605" xlink:href="../../../Downloads/5a22e3bd87eed9.7874143115122359655568.png"/></defs><g id="Calque_2" data-name="Calque 2"><g id="Calque_2-2" data-name="Calque 2"><path class="cls-1" d="M456.24,241.15l24.3-29.1c16.82,13.88,34.44,22.69,55.8,22.69,16.82,0,27-6.67,27-17.62v-.53c0-10.41-6.41-15.75-37.65-23.76-37.65-9.62-61.94-20-61.94-57.14v-.54c0-33.91,27.23-56.33,65.41-56.33,27.24,0,50.46,8.54,69.42,23.76l-21.36,31c-16.55-11.48-32.84-18.42-48.59-18.42s-24,7.21-24,16.29V132c0,12.28,8,16.29,40.31,24.56,37.92,9.88,59.28,23.5,59.28,56.07v.54c0,37.11-28.3,57.94-68.62,57.94A118.92,118.92,0,0,1,456.24,241.15Z"/><path class="cls-1" d="M634.8,125.27h40.58v20.56c9.88-13.35,23.5-23.23,44.59-23.23,33.37,0,65.15,26.17,65.15,74v.54c0,47.79-31.24,74-65.15,74-21.63,0-35-9.88-44.59-21.36v61.41H634.8ZM744.53,197.1v-.54c0-23.76-16-39.51-35-39.51s-34.71,15.75-34.71,39.51v.54c0,23.76,15.75,39.51,34.71,39.51S744.53,221.13,744.53,197.1Z"/><path class="cls-1" d="M807.21,197.63v-.53c0-41.12,33.11-74.5,77.69-74.5,44.33,0,77.17,32.85,77.17,74v.54c0,41.12-33.11,74.49-77.7,74.49C840.05,271.59,807.21,238.75,807.21,197.63Zm114.81,0v-.53c0-21.1-15.22-39.52-37.65-39.52-23.23,0-37.11,17.89-37.11,39v.54c0,21.09,15.22,39.51,37.64,39.51C908.13,236.61,922,218.72,922,197.63Z"/><path class="cls-1" d="M997.24,227.8V160H980.15V125.27h17.09V88.7h40.58v36.57h33.65V160h-33.65v61.15c0,9.34,4,13.88,13.09,13.88a41.3,41.3,0,0,0,20-5.07v32.57c-8.54,5.08-18.42,8.28-32,8.28C1014.06,270.79,997.24,260.91,997.24,227.8Z"/><path class="cls-1" d="M1101.3,73.48H1144v36H1101.3Zm1.07,51.79H1143V268.39h-40.58Z"/><path class="cls-2" d="M1187.2,160h-16.82V126.61h16.82v-9.08c0-15.75,4-27.23,11.49-34.71s18.42-11.21,32.84-11.21c12.81,0,21.36,1.6,28.83,4v33.64a51.51,51.51,0,0,0-18.42-3.47c-9.35,0-14.69,4.81-14.69,15.49v5.61h32.84V160h-32.3V268.39H1187.2Z"/><path class="cls-3" d="M1281.38,125.27H1322v28.84c8.28-19.76,21.62-32.57,45.66-31.51v42.46h-2.14c-27,0-43.52,16.28-43.52,50.46v52.87h-40.59Z"/><path class="cls-4" d="M1391.05,217.92V125.27h40.59v79.84c0,19.22,9.08,29.1,24.56,29.1s25.37-9.88,25.37-29.1V125.27h40.58V268.39h-40.58v-20.3c-9.35,12-21.36,23-41.92,23C1408.94,271.06,1391.05,250.76,1391.05,217.92Z"/><path class="cls-5" d="M1558.39,73.48h42.72v36h-42.72Zm1.07,51.79H1600V268.39h-40.58Z"/><path class="cls-6" d="M1644,227.8V160h-17.09V125.27H1644V88.7h40.58v36.57h33.64V160h-33.64v61.15c0,9.34,4,13.88,13.08,13.88a41.34,41.34,0,0,0,20-5.07v32.57c-8.55,5.08-18.42,8.28-32,8.28C1660.85,270.79,1644,260.91,1644,227.8Z"/><circle class="cls-1" cx="191" cy="191" r="191"/><use transform="translate(92.54 337.19) rotate(-103.18) scale(0.04)" xlink:href="#image"/><use transform="translate(59.42 269.27) rotate(-106.08) scale(0.06 0.06)" xlink:href="#image"/><use transform="translate(76.23 299.03) rotate(-101.8) scale(0.05)" xlink:href="#image"/></g><g id="Calque_3" data-name="Calque 3"><path class="cls-7" d="M32.23,174.94s8.42-9.9,18.17-22.56c10-13,19.3-30.22,26.6-40,11.5-15.5,43.26-35.5,94.5-35.5,64,0,159.57,29.78,157,103l2,8-11,7-4.44-4.44a1.68,1.68,0,0,0-.94-.51c-7-1.06-81.21-78.13-200.87-39.95a60.12,60.12,0,0,1-6.16,1.64c-5.38,1.1-15.82,3-21.59,2.26-8-1-15,3-29,19,0,0-7,9-9,11Z"/><path class="cls-7" d="M56.5,172.83s5.81-6.89-6.1-20.45"/><line class="cls-7" x1="314.12" y1="189.88" x2="328.5" y2="179.83"/><path class="cls-7" d="M57.92,166C64.5,150.83,204.5,42.83,319.77,185.93"/><path class="cls-7" d="M60.65,220.92S68,213.53,76.53,204c8.79-9.78,17.27-23,23.69-30.38C110.35,162,136.85,148,177.51,151.26c50.78,4.1,124.68,34.09,117.9,92.58l1.07,6.53-9.18,4.91-3.24-3.85a1.42,1.42,0,0,0-.71-.47c-5.5-1.29-59.38-67.78-156.8-44.88a47.07,47.07,0,0,1-5,.92c-4.34.54-12.75,1.37-17.28.42C98,206.11,92.19,208.87,80,220.78c0,0-6.14,6.76-7.85,8.24Z"/><path class="cls-7" d="M80,220.78s5.06-5.14-3.51-16.76"/><line class="cls-7" x1="283.35" y1="250.96" x2="295.41" y2="243.84"/><path class="cls-7" d="M81.61,215.4c6.2-11.73,124.28-89.26,206.48,32.76"/><path class="cls-7" d="M78.44,278.58s5.56-5.71,12-13.05c6.67-7.54,13-17.65,17.88-23.36,7.67-9,28.09-20,60-18.29,39.82,2.18,98.29,23.48,94.26,67.76l1,4.91-7.08,3.87-2.61-2.84a1,1,0,0,0-.57-.34c-4.33-.89-47.93-50.11-123.65-31.05a39.17,39.17,0,0,1-3.88.78c-3.39.48-10,1.26-13.51.63-5-.88-9.43,1.31-18.67,10.52,0,0-4.66,5.22-6,6.36Z"/><path class="cls-7" d="M93.61,278.12s3.84-4-3.12-12.59"/><line class="cls-7" x1="253.32" y1="297.24" x2="262.6" y2="291.64"/><path class="cls-7" d="M94.71,274c4.6-9,95.29-69.63,162.26,21"/></g></g></svg>